<svg width="70" height="80" viewBox="0 0 70 80" fill="none" xmlns="http://www.w3.org/2000/svg">
<path d="M36.0893 0.387863C35.1937 -0.129287 34.0902 -0.129288 33.1945 0.387863L1.44895 18.7183C0.5535 19.2353 0.00186965 20.1908 0.00181836 21.2248L3.57704e-09 57.8825C-5.12973e-05 58.9167 0.551701 59.8724 1.44738 60.3894L33.1948 78.7167C34.0903 79.2337 35.1936 79.2337 36.0891 78.7167L67.8365 60.3894C68.7322 59.8724 69.2839 58.9167 69.2839 57.8825L69.282 21.2248C69.282 20.1908 68.7304 19.2353 67.8349 18.7183L36.0893 0.387863Z" fill="white"/>
<path d="M36.0918 4.38791C35.1961 3.87075 34.0926 3.87075 33.197 4.3879L4.9154 20.7182C4.01995 21.2352 3.46832 22.1907 3.46827 23.2247L3.46665 55.8824C3.4666 56.9166 4.01835 57.8722 4.91403 58.3893L33.1972 74.7168C34.0927 75.2337 35.196 75.2337 36.0915 74.7168L64.3747 58.3893C65.2704 57.8722 65.8222 56.9166 65.8221 55.8824L65.8205 23.2247C65.8204 22.1907 65.2688 21.2352 64.3733 20.7182L36.0918 4.38791Z" fill="url(#paint0_linear_233_414)"/>
<defs>
<linearGradient id="paint0_linear_233_414" x1="14.2666" y1="15.0187" x2="50.8666" y2="65.352" gradientUnits="userSpaceOnUse">
<stop stop-color="#AF00CE"/>
<stop offset="0.40625" stop-color="#DE0399"/>
<stop offset="0.794293" stop-color="#FF5B98"/>
<stop offset="0.997697" stop-color="#FF7B93"/>
</linearGradient>
</defs>
</svg>
